<svg xmlns="http://www.w3.org/2000/svg" xmlns:xlink="http://www.w3.org/1999/xlink" width="500" zoomAndPan="magnify" viewBox="0 0 375 374.999991" height="500" preserveAspectRatio="xMidYMid meet" version="1.0"><defs><g/><clipPath id="ac7ea00c5b"><path d="M 151 119.066406 L 224.328125 119.066406 L 224.328125 233.066406 L 151 233.066406 Z M 151 119.066406 " clip-rule="nonzero"/></clipPath><clipPath id="64a3c2f24e"><path d="M 89.9375 82.28125 L 281.9375 82.28125 L 281.9375 193.28125 L 89.9375 193.28125 Z M 89.9375 82.28125 " clip-rule="nonzero"/></clipPath></defs><g clip-path="url(#ac7ea00c5b)"><path fill="#000000" d="M 221.523438 191.851562 C 220.367188 189.625 218.96875 187.527344 217.320312 185.589844 C 217.03125 182.210938 215.917969 178.917969 214.355469 175.867188 C 215.34375 175.949219 216.289062 175.746094 217.195312 175.210938 C 218.308594 174.550781 219.214844 173.4375 219.667969 172.160156 C 220.285156 170.515625 220.285156 168.660156 219.914062 166.890625 C 219.542969 165.117188 218.804688 163.46875 218.019531 161.988281 C 217.074219 160.214844 215.917969 158.609375 214.644531 157.210938 C 214.4375 157.003906 214.105469 157.25 214.191406 157.539062 C 214.601562 158.773438 214.601562 160.050781 214.355469 161.246094 C 214.148438 162.480469 213.695312 163.636719 213.285156 164.746094 C 212.871094 165.902344 212.460938 167.011719 212.253906 168.164062 C 212.046875 169.320312 212.046875 170.472656 212.171875 171.625 C 212.210938 171.914062 212.253906 172.203125 212.296875 172.449219 C 209.535156 168.371094 205.953125 164.871094 202.285156 161.617188 C 199.730469 159.308594 197.09375 157.085938 194.582031 154.777344 C 194.128906 154.367188 193.386719 154.65625 193.347656 155.273438 C 193.265625 157.828125 194.292969 160.378906 196.1875 162.070312 C 198.042969 163.800781 200.679688 164.625 203.191406 164.335938 C 204.878906 165.902344 206.527344 167.546875 208.050781 169.277344 C 206.898438 168.90625 205.621094 169.320312 204.511719 169.691406 C 203.851562 169.9375 203.191406 170.183594 202.53125 170.472656 C 202.449219 170.515625 202.492188 170.679688 202.574219 170.679688 C 203.5625 170.679688 204.386719 171.214844 205.25 171.625 C 205.703125 171.832031 206.15625 172.039062 206.609375 172.121094 C 207.105469 172.203125 207.597656 172.203125 208.050781 172.121094 C 208.585938 172.039062 209.125 171.832031 209.617188 171.503906 C 209.660156 171.460938 209.660156 171.460938 209.660156 171.421875 C 209.660156 171.378906 209.660156 171.296875 209.660156 171.253906 C 212.210938 174.507812 214.230469 178.09375 215.300781 182.292969 C 215.425781 182.746094 215.507812 183.242188 215.589844 183.695312 C 215.34375 183.40625 215.054688 183.160156 214.808594 182.914062 C 212.007812 180.234375 208.792969 177.761719 205.25 175.539062 C 202.945312 174.097656 200.597656 172.738281 198.207031 171.421875 C 198.207031 171.378906 198.25 171.335938 198.25 171.296875 C 198.742188 169.855469 198.988281 168.453125 199.402344 167.054688 C 199.441406 166.847656 199.195312 166.722656 198.949219 166.765625 C 196.601562 167.011719 194.171875 167.175781 192.070312 168.125 C 191.90625 168.042969 191.742188 167.960938 191.574219 167.835938 C 191.574219 167.753906 191.617188 167.671875 191.617188 167.589844 C 191.863281 165.941406 191.574219 164.417969 190.835938 162.894531 C 189.96875 161.082031 188.773438 159.269531 187.539062 157.496094 C 187.375 157.25 186.878906 157.292969 186.796875 157.578125 C 186.550781 158.445312 185.972656 159.1875 185.355469 159.925781 C 184.738281 159.351562 183.957031 159.0625 183.132812 158.691406 C 182.347656 158.320312 181.402344 157.746094 181.441406 156.839844 C 181.441406 156.550781 180.988281 156.304688 180.742188 156.550781 C 180 157.375 179.257812 158.199219 178.558594 159.0625 C 178.269531 159.433594 177.941406 159.84375 177.777344 160.296875 C 177.695312 160.464844 177.652344 160.667969 177.652344 160.832031 C 176.746094 160.09375 175.800781 159.390625 175.015625 158.484375 C 174.851562 158.28125 174.6875 158.074219 174.523438 157.867188 C 174.523438 157.664062 174.316406 157.457031 174.070312 157.496094 C 173.945312 157.496094 173.824219 157.539062 173.738281 157.621094 C 173.574219 157.496094 173.410156 157.375 173.246094 157.25 C 170.320312 155.109375 167.933594 152.71875 166.160156 150.207031 C 164.308594 147.613281 163.402344 144.644531 163.402344 141.433594 C 163.402344 138.714844 164.019531 136.203125 165.171875 134.019531 C 166.367188 131.875 167.933594 129.980469 169.867188 128.417969 C 171.761719 126.890625 173.988281 125.699219 176.375 124.875 C 178.765625 124.050781 181.277344 123.636719 183.832031 123.636719 C 188.652344 123.636719 192.976562 124.542969 196.683594 126.273438 C 200.390625 128.003906 203.605469 130.394531 206.238281 133.316406 C 208.875 136.242188 210.976562 139.742188 212.542969 143.65625 C 213.984375 147.363281 214.929688 151.277344 215.34375 155.398438 L 216.785156 155.398438 L 216.785156 119.066406 L 215.21875 119.066406 C 215.097656 119.476562 214.929688 119.929688 214.765625 120.425781 C 214.476562 121.207031 214.105469 121.992188 213.613281 122.648438 C 213.117188 123.351562 212.542969 123.925781 211.882812 124.421875 C 211.140625 124.957031 210.234375 125.246094 209.164062 125.246094 C 207.847656 125.246094 206.199219 124.914062 204.222656 124.214844 C 202.367188 123.554688 200.265625 122.855469 198 122.113281 C 195.777344 121.371094 193.386719 120.671875 190.917969 120.011719 C 188.527344 119.394531 186.054688 119.066406 183.625 119.066406 C 179.464844 119.066406 175.46875 119.683594 171.679688 120.960938 C 167.972656 122.238281 164.59375 124.089844 161.753906 126.480469 C 158.910156 128.871094 156.605469 131.875 154.875 135.335938 C 153.144531 138.835938 152.320312 142.832031 152.320312 147.242188 C 152.320312 151.277344 153.144531 154.902344 154.75 158.074219 C 155.738281 160.011719 156.976562 161.90625 158.375 163.636719 C 158.292969 163.921875 158.210938 164.210938 158.167969 164.542969 C 157.632812 166.929688 157.550781 169.441406 158.292969 171.832031 C 158.5 172.53125 158.746094 173.191406 159.035156 173.808594 C 156.441406 172.902344 153.84375 173.5625 151.332031 174.261719 C 151.085938 174.304688 150.921875 174.632812 151.042969 175.003906 C 152.566406 178.585938 154.296875 182.417969 156.976562 184.890625 L 155.902344 185.011719 C 155.617188 185.054688 155.574219 185.464844 155.699219 185.753906 C 157.347656 189.132812 160.476562 190.945312 163.359375 191.109375 C 163.976562 191.152344 164.59375 191.109375 165.171875 191.027344 C 165.542969 190.984375 165.914062 190.863281 166.242188 190.820312 C 166.902344 190.738281 167.644531 190.945312 168.304688 190.945312 C 169.828125 190.945312 171.472656 190.78125 172.957031 190.367188 C 174.8125 189.875 176.542969 188.925781 177.816406 187.320312 C 178.066406 187.03125 178.269531 186.703125 178.476562 186.332031 C 179.671875 188.636719 181.195312 190.65625 183.007812 192.425781 C 182.925781 192.386719 182.882812 192.34375 182.800781 192.34375 C 181.609375 191.851562 180.289062 191.769531 179.09375 192.097656 C 178.476562 192.261719 177.859375 192.550781 177.324219 192.921875 C 177.117188 193.085938 176.828125 193.25 176.789062 193.582031 C 176.746094 193.828125 176.953125 194.074219 177.160156 194.238281 C 176.292969 194.777344 175.511719 195.394531 174.644531 196.011719 C 174.5625 196.09375 174.605469 196.21875 174.6875 196.257812 C 175.511719 196.382812 176.292969 196.628906 177.078125 196.875 C 176.953125 197.617188 177.363281 198.359375 177.984375 198.769531 C 178.683594 199.265625 179.589844 199.347656 180.453125 199.222656 C 182.0625 199.058594 183.585938 198.152344 184.53125 196.957031 C 185.027344 196.339844 185.398438 195.640625 185.601562 194.859375 C 185.644531 194.816406 185.644531 194.777344 185.683594 194.734375 C 188.320312 196.792969 191.207031 198.523438 194.128906 200.089844 C 196.726562 201.449219 199.609375 202.890625 202.203125 204.660156 C 200.472656 204.703125 198.785156 205.238281 197.054688 205.816406 C 196.972656 205.238281 196.683594 204.660156 196.3125 204.25 C 195.53125 203.464844 194.375 203.21875 193.347656 202.847656 C 192.730469 202.644531 192.070312 202.394531 191.410156 202.148438 C 191.328125 202.109375 191.246094 202.273438 191.289062 202.3125 C 191.945312 202.972656 192.234375 203.960938 192.730469 204.785156 C 192.976562 205.238281 193.265625 205.648438 193.675781 205.980469 C 193.964844 206.226562 194.292969 206.433594 194.625 206.597656 C 193.511719 206.925781 192.441406 207.175781 191.289062 207.257812 C 190.382812 207.296875 189.476562 207.257812 188.570312 207.089844 C 188.570312 207.089844 188.570312 207.050781 188.570312 207.050781 C 187.992188 205.320312 187.210938 203.589844 185.769531 202.394531 C 184.367188 201.285156 182.515625 200.707031 180.785156 201.285156 C 180.453125 201.40625 180.125 201.777344 180.289062 202.148438 C 181.359375 205.15625 183.957031 207.339844 187.003906 208.203125 C 188.734375 208.699219 190.585938 208.78125 192.359375 208.535156 C 193.101562 208.449219 193.800781 208.285156 194.5 208.082031 C 194.210938 208.617188 194.128906 209.273438 194.171875 209.894531 C 194.171875 210.222656 194.292969 210.511719 194.375 210.839844 C 194.460938 211.128906 194.582031 211.417969 194.664062 211.703125 C 194.914062 212.324219 195.199219 212.941406 195.488281 213.515625 C 195.53125 213.601562 195.695312 213.558594 195.652344 213.476562 C 195.613281 212.570312 196.066406 211.703125 196.4375 210.964844 C 196.519531 210.757812 196.601562 210.59375 196.683594 210.386719 C 196.765625 210.179688 196.847656 210.015625 196.890625 209.851562 C 197.011719 209.480469 197.09375 209.109375 197.09375 208.699219 C 197.09375 208.285156 197.054688 207.832031 196.972656 207.339844 C 197.21875 207.257812 197.507812 207.132812 197.753906 207.050781 C 199.8125 206.351562 201.996094 205.730469 204.140625 206.308594 C 204.222656 206.351562 204.304688 206.351562 204.386719 206.351562 C 207.0625 208.574219 209.125 211.375 209.742188 215.042969 C 209.78125 215.371094 209.824219 215.660156 209.863281 215.988281 C 209.617188 216.605469 209.328125 217.183594 209 217.71875 C 207.640625 220.109375 205.867188 222.125 203.726562 223.691406 C 201.707031 225.175781 199.359375 226.328125 196.765625 227.109375 C 196.808594 225.378906 196.683594 223.652344 196.273438 222.003906 C 196.355469 221.960938 196.394531 221.960938 196.476562 221.921875 C 197.671875 222.332031 198.949219 222.414062 200.144531 222.25 C 201.542969 222.042969 202.738281 221.386719 203.6875 220.4375 C 204.179688 219.941406 204.550781 219.367188 204.878906 218.707031 C 205.003906 218.460938 205.167969 218.128906 205.046875 217.800781 C 204.921875 217.554688 204.632812 217.429688 204.34375 217.347656 C 204.878906 216.402344 205.292969 215.371094 205.785156 214.339844 C 205.828125 214.21875 205.746094 214.09375 205.621094 214.136719 C 204.757812 214.421875 203.890625 214.589844 202.984375 214.792969 C 202.699219 214.011719 201.914062 213.515625 201.089844 213.476562 C 200.183594 213.394531 199.238281 213.847656 198.453125 214.421875 C 197.011719 215.496094 196.066406 217.226562 195.859375 218.914062 C 195.777344 219.53125 195.777344 220.148438 195.902344 220.726562 C 195.820312 220.480469 195.695312 220.230469 195.613281 219.984375 C 195.324219 219.367188 194.953125 218.789062 194.542969 218.253906 C 194.335938 217.964844 194.089844 217.636719 193.800781 217.429688 C 194.128906 216.523438 193.304688 215.371094 192.277344 215.289062 C 191 215.164062 190.011719 216.359375 190.339844 217.59375 C 190.503906 218.214844 190.957031 218.667969 191.535156 218.871094 C 191.824219 218.996094 192.152344 218.996094 192.480469 218.953125 C 192.730469 218.914062 192.894531 218.789062 193.101562 218.707031 C 193.304688 218.914062 193.511719 219.242188 193.636719 219.449219 C 193.882812 219.820312 194.128906 220.230469 194.292969 220.644531 C 194.664062 221.425781 194.914062 222.25 195.078125 223.074219 C 195.367188 224.554688 195.40625 226.039062 195.367188 227.523438 C 192.976562 228.097656 190.585938 228.429688 188.199219 228.429688 C 183.171875 228.429688 178.640625 227.605469 174.6875 226.039062 C 170.734375 224.433594 167.273438 222.207031 164.472656 219.324219 C 161.671875 216.484375 159.363281 213.023438 157.675781 209.027344 C 156.070312 205.277344 154.957031 201.117188 154.339844 196.671875 L 153.101562 196.671875 L 153.101562 233.164062 L 154.421875 233.164062 C 154.546875 232.671875 154.628906 232.136719 154.75 231.640625 C 154.957031 230.777344 155.285156 229.992188 155.738281 229.253906 C 156.191406 228.46875 156.808594 227.851562 157.550781 227.398438 C 158.292969 226.90625 159.242188 226.65625 160.269531 226.65625 C 161.753906 226.65625 163.566406 226.988281 165.871094 227.726562 C 168.054688 228.429688 170.445312 229.171875 173.082031 229.953125 C 175.675781 230.734375 178.476562 231.476562 181.441406 232.175781 C 184.324219 232.835938 187.25 233.207031 190.132812 233.207031 C 194.5 233.207031 198.785156 232.507812 202.863281 231.066406 C 206.941406 229.664062 210.566406 227.644531 213.695312 225.050781 C 216.785156 222.457031 219.339844 219.285156 221.234375 215.578125 C 223.128906 211.871094 224.074219 207.628906 224.074219 202.972656 C 224.035156 198.8125 223.210938 195.0625 221.523438 191.851562 Z M 197.21875 161.082031 C 196.066406 160.011719 195.28125 158.570312 194.996094 157.042969 C 197.179688 159.023438 199.441406 160.957031 201.667969 162.976562 C 200.019531 162.8125 198.453125 162.191406 197.21875 161.082031 Z M 206.898438 170.597656 C 207.144531 170.636719 207.351562 170.636719 207.558594 170.71875 C 207.765625 170.761719 208.011719 170.84375 208.21875 170.925781 C 208.585938 171.050781 208.957031 171.214844 209.289062 171.421875 C 208.21875 171.171875 207.0625 171.171875 205.992188 171.460938 C 207.0625 171.214844 208.175781 171.253906 209.207031 171.542969 C 208.464844 171.957031 207.558594 172.121094 206.691406 171.957031 C 205.746094 171.789062 204.921875 171.253906 204.058594 170.84375 C 203.726562 170.679688 203.355469 170.554688 202.984375 170.515625 C 203.398438 170.347656 203.851562 170.183594 204.261719 170.019531 C 204.796875 169.8125 205.375 169.648438 205.953125 169.523438 C 206.527344 169.402344 207.105469 169.359375 207.679688 169.441406 C 207.886719 169.484375 208.09375 169.566406 208.300781 169.648438 C 208.671875 170.0625 209 170.515625 209.371094 170.925781 C 209.371094 170.96875 209.410156 171.007812 209.410156 171.089844 L 209 170.84375 C 208.792969 170.71875 208.628906 170.597656 208.421875 170.472656 C 208.21875 170.347656 208.050781 170.226562 207.847656 170.144531 C 207.640625 170.0625 207.433594 169.976562 207.1875 169.894531 C 207.394531 169.9375 207.640625 170.0625 207.804688 170.144531 C 208.011719 170.265625 208.175781 170.390625 208.382812 170.515625 C 208.546875 170.636719 208.753906 170.800781 208.917969 170.925781 L 209.371094 171.253906 C 209.371094 171.253906 209.371094 171.296875 209.371094 171.296875 C 209 171.132812 208.585938 170.925781 208.175781 170.800781 C 207.96875 170.71875 207.722656 170.679688 207.515625 170.597656 C 207.269531 170.554688 207.0625 170.515625 206.816406 170.515625 C 205.910156 170.429688 204.964844 170.554688 204.058594 170.515625 C 205.085938 170.597656 205.992188 170.472656 206.898438 170.597656 Z M 214.023438 175.25 C 214.023438 175.210938 213.984375 175.210938 213.984375 175.210938 C 214.601562 174.34375 215.179688 173.398438 215.671875 172.367188 C 215.917969 171.789062 216.125 171.214844 216.289062 170.636719 C 216.457031 170.019531 216.539062 169.402344 216.578125 168.785156 C 216.742188 166.269531 216.125 163.839844 215.714844 161.410156 C 216.085938 163.839844 216.621094 166.3125 216.414062 168.785156 C 216.332031 169.402344 216.25 169.976562 216.085938 170.597656 C 215.917969 171.171875 215.714844 171.75 215.464844 172.285156 C 215.011719 173.191406 214.476562 174.054688 213.902344 174.839844 C 215.054688 172.285156 215.136719 169.195312 214.148438 166.601562 C 214.972656 169.195312 214.765625 172.121094 213.652344 174.507812 C 213.570312 174.34375 213.488281 174.222656 213.367188 174.054688 C 212.75 172.203125 212.542969 170.308594 212.832031 168.453125 C 212.996094 167.300781 213.40625 166.1875 213.820312 165.035156 C 214.230469 163.882812 214.683594 162.730469 214.929688 161.492188 C 215.136719 160.503906 215.21875 159.515625 215.054688 158.484375 C 215.835938 159.433594 216.578125 160.464844 217.195312 161.574219 C 218.019531 162.976562 218.722656 164.5 219.175781 166.148438 C 219.628906 167.753906 219.832031 169.523438 219.421875 171.171875 C 219.089844 172.492188 218.390625 173.644531 217.402344 174.425781 C 216.578125 175.085938 215.589844 175.414062 214.601562 175.375 C 214.890625 175.085938 215.179688 174.796875 215.464844 174.46875 C 215.878906 174.015625 216.289062 173.5625 216.660156 173.066406 C 217.074219 172.574219 217.402344 172.078125 217.730469 171.503906 C 218.019531 170.96875 218.269531 170.347656 218.390625 169.730469 C 218.226562 170.347656 217.980469 170.925781 217.648438 171.460938 C 217.320312 171.996094 216.949219 172.492188 216.539062 172.945312 C 216.125 173.398438 215.714844 173.851562 215.261719 174.261719 C 214.808594 174.589844 214.4375 174.921875 214.023438 175.25 C 214.066406 175.25 214.066406 175.25 214.023438 175.25 Z M 182.019531 202.558594 C 184.410156 202.3125 186.097656 204.578125 186.960938 206.722656 C 184.863281 205.980469 183.050781 204.621094 182.019531 202.558594 Z M 193.921875 205.9375 C 193.140625 205.277344 192.769531 204.332031 192.316406 203.464844 C 192.152344 203.136719 191.945312 202.808594 191.742188 202.519531 C 192.152344 202.683594 192.605469 202.847656 193.015625 202.972656 C 193.554688 203.179688 194.089844 203.300781 194.582031 203.507812 C 195.078125 203.671875 195.570312 203.917969 195.984375 204.25 C 196.3125 204.539062 196.558594 204.867188 196.726562 205.320312 C 196.808594 205.527344 196.847656 205.730469 196.847656 205.898438 C 196.765625 205.9375 196.640625 205.980469 196.558594 206.019531 C 196.4375 205.816406 196.3125 205.648438 196.1875 205.445312 C 196.066406 205.238281 195.941406 205.074219 195.820312 204.867188 C 195.695312 204.703125 195.53125 204.539062 195.367188 204.371094 C 195.53125 204.539062 195.652344 204.703125 195.777344 204.867188 C 195.902344 205.03125 196.023438 205.238281 196.105469 205.445312 C 196.1875 205.648438 196.3125 205.816406 196.4375 206.019531 C 196.394531 206.0625 196.3125 206.0625 196.273438 206.101562 C 196.105469 205.9375 195.984375 205.816406 195.859375 205.691406 C 195.695312 205.527344 195.53125 205.363281 195.367188 205.238281 C 195.199219 205.113281 194.996094 204.949219 194.828125 204.824219 C 194.089844 204.289062 193.265625 203.878906 192.605469 203.261719 C 193.265625 203.878906 194.046875 204.332031 194.789062 204.867188 C 194.953125 204.992188 195.160156 205.15625 195.324219 205.277344 C 195.488281 205.445312 195.652344 205.566406 195.820312 205.730469 C 195.941406 205.855469 196.066406 205.980469 196.1875 206.144531 C 196.105469 206.183594 196.066406 206.183594 195.984375 206.226562 C 195.242188 205.773438 194.417969 205.402344 193.59375 205.074219 C 194.375 205.402344 195.160156 205.773438 195.859375 206.269531 C 195.570312 206.351562 195.324219 206.433594 195.035156 206.554688 C 194.625 206.390625 194.253906 206.183594 193.921875 205.9375 Z M 196.808594 209.769531 C 196.765625 209.976562 196.683594 210.140625 196.601562 210.304688 C 196.519531 210.46875 196.4375 210.675781 196.355469 210.882812 C 196.1875 211.25 195.941406 211.664062 195.820312 212.074219 C 195.695312 212.40625 195.613281 212.734375 195.570312 213.105469 C 195.367188 212.734375 195.199219 212.324219 195.035156 211.910156 C 194.828125 211.375 194.664062 210.839844 194.542969 210.261719 C 194.460938 209.644531 194.460938 209.027344 194.707031 208.449219 C 194.746094 208.328125 194.828125 208.203125 194.914062 208.082031 C 195.324219 207.957031 195.695312 207.832031 196.105469 207.710938 C 195.984375 207.792969 195.902344 207.875 195.777344 207.957031 C 195.613281 208.121094 195.449219 208.246094 195.324219 208.449219 C 195.199219 208.617188 195.078125 208.820312 194.996094 209.027344 C 195.078125 208.820312 195.199219 208.617188 195.367188 208.449219 C 195.53125 208.285156 195.652344 208.121094 195.859375 207.996094 C 196.023438 207.875 196.1875 207.75 196.394531 207.628906 C 196.394531 207.628906 196.4375 207.628906 196.4375 207.585938 C 196.519531 207.542969 196.640625 207.503906 196.726562 207.460938 C 196.476562 207.667969 196.273438 207.914062 196.105469 208.203125 C 195.984375 208.367188 195.859375 208.574219 195.777344 208.78125 C 195.695312 208.988281 195.613281 209.191406 195.570312 209.398438 C 195.488281 209.808594 195.449219 210.261719 195.488281 210.714844 C 195.53125 211.167969 195.53125 211.582031 195.53125 212.035156 C 195.53125 211.582031 195.53125 211.167969 195.488281 210.714844 C 195.449219 210.261719 195.488281 209.851562 195.570312 209.441406 C 195.613281 209.234375 195.695312 209.027344 195.777344 208.820312 C 195.859375 208.617188 195.984375 208.449219 196.105469 208.285156 C 196.3125 207.996094 196.558594 207.75 196.808594 207.503906 C 196.230469 208.285156 196.023438 209.355469 196.273438 210.304688 C 196.066406 209.355469 196.355469 208.367188 196.890625 207.628906 C 197.011719 208.410156 197.011719 209.109375 196.808594 209.769531 Z M 204.425781 217.71875 C 204.550781 217.761719 204.757812 217.800781 204.839844 217.925781 C 204.921875 218.046875 204.878906 218.214844 204.839844 218.335938 C 204.757812 218.667969 204.550781 218.953125 204.386719 219.203125 C 204.222656 219.488281 204.015625 219.777344 203.808594 219.984375 C 202.984375 220.972656 201.832031 221.632812 200.515625 221.921875 C 199.320312 222.167969 198 222.125 196.808594 221.753906 C 197.714844 221.796875 198.578125 221.632812 199.402344 221.386719 C 200.347656 221.097656 201.214844 220.683594 202.039062 220.191406 C 201.214844 220.644531 200.308594 221.015625 199.359375 221.261719 C 198.660156 221.46875 197.960938 221.550781 197.261719 221.550781 C 199.441406 220.972656 201.421875 219.902344 202.945312 218.417969 C 201.214844 219.984375 199.03125 221.015625 196.640625 221.507812 C 197.589844 220.3125 198.824219 219.40625 200.101562 218.625 C 201.132812 218.007812 202.328125 217.429688 203.519531 217.472656 C 203.851562 217.59375 204.140625 217.636719 204.425781 217.71875 Z M 203.480469 215.082031 C 204.179688 214.917969 204.839844 214.753906 205.5 214.546875 C 205.046875 215.496094 204.632812 216.441406 204.179688 217.347656 C 202.945312 217.101562 201.667969 217.511719 200.597656 218.089844 C 199.894531 218.460938 199.238281 218.914062 198.621094 219.367188 C 197.960938 219.859375 197.382812 220.394531 196.847656 220.972656 C 197.136719 220.5625 197.464844 220.148438 197.753906 219.738281 C 197.960938 219.449219 198.167969 219.203125 198.414062 218.953125 C 198.660156 218.707031 198.90625 218.5 199.195312 218.335938 C 198.90625 218.5 198.621094 218.707031 198.371094 218.953125 C 198.125 219.203125 197.878906 219.449219 197.671875 219.738281 C 197.34375 220.148438 197.011719 220.601562 196.683594 221.015625 C 196.847656 220.480469 197.09375 219.984375 197.425781 219.488281 C 197.835938 218.832031 198.414062 218.296875 199.074219 217.882812 C 199.402344 217.675781 199.773438 217.511719 200.101562 217.390625 C 200.472656 217.222656 200.800781 217.101562 201.171875 216.976562 C 201.914062 216.730469 202.613281 216.484375 203.355469 216.277344 C 202.613281 216.484375 201.914062 216.6875 201.171875 216.9375 C 200.800781 217.058594 200.433594 217.183594 200.101562 217.347656 C 199.730469 217.472656 199.359375 217.636719 199.03125 217.84375 C 198.332031 218.214844 197.753906 218.789062 197.300781 219.449219 C 196.929688 219.941406 196.683594 220.519531 196.476562 221.097656 C 196.519531 220.808594 196.601562 220.480469 196.726562 220.191406 C 196.726562 220.148438 196.726562 220.148438 196.726562 220.109375 C 196.972656 219.40625 197.21875 218.707031 197.632812 218.089844 C 198.042969 217.472656 198.621094 216.9375 199.277344 216.523438 C 200.597656 215.742188 202.078125 215.414062 203.480469 215.082031 Z M 196.847656 217.019531 C 197.21875 216.277344 197.714844 215.578125 198.332031 215.042969 C 198.988281 214.421875 199.8125 213.929688 200.679688 213.847656 C 201.542969 213.765625 202.449219 214.175781 202.78125 214.960938 C 202.328125 215.082031 201.875 215.164062 201.421875 215.328125 C 200.761719 215.535156 200.101562 215.78125 199.484375 216.152344 C 199.609375 216.03125 199.691406 215.949219 199.8125 215.824219 C 200.183594 215.496094 200.597656 215.164062 201.089844 214.960938 C 200.597656 215.125 200.183594 215.414062 199.773438 215.742188 C 199.441406 216.03125 199.113281 216.320312 198.785156 216.605469 C 199.441406 215.824219 200.144531 215.082031 200.925781 214.421875 C 199.9375 215.207031 199.03125 216.113281 198.207031 217.101562 C 198 217.308594 197.796875 217.511719 197.632812 217.761719 C 197.09375 218.460938 196.765625 219.285156 196.476562 220.109375 C 196.476562 220.109375 196.476562 220.148438 196.476562 220.148438 C 196.394531 220.355469 196.3125 220.5625 196.273438 220.765625 C 196.066406 219.53125 196.230469 218.214844 196.847656 217.019531 Z M 191.328125 169.320312 C 191.824219 168.988281 192.316406 168.703125 192.851562 168.496094 C 194.625 167.753906 196.601562 167.589844 198.578125 167.34375 C 198.289062 168.535156 198.042969 169.773438 197.632812 171.007812 C 197.300781 172.039062 196.847656 173.066406 196.1875 174.054688 C 194.582031 176.402344 191.617188 178.09375 188.609375 179.039062 C 186.921875 179.574219 185.148438 179.863281 183.421875 180.113281 C 184.449219 179.824219 185.480469 179.371094 186.386719 178.835938 C 187.414062 178.257812 188.363281 177.558594 189.226562 176.816406 C 190.09375 176.074219 190.917969 175.292969 191.699219 174.507812 C 192.480469 173.726562 193.222656 172.945312 194.007812 172.160156 C 193.222656 172.902344 192.398438 173.6875 191.617188 174.425781 C 190.792969 175.167969 189.96875 175.949219 189.0625 176.652344 C 188.15625 177.351562 187.210938 178.011719 186.222656 178.546875 C 185.683594 178.835938 185.109375 179.082031 184.53125 179.289062 C 186.34375 178.214844 187.910156 176.816406 189.1875 175.332031 C 190.050781 174.34375 190.792969 173.316406 191.617188 172.328125 C 192.441406 171.378906 193.386719 170.472656 194.582031 169.855469 C 193.347656 170.472656 192.359375 171.335938 191.492188 172.285156 C 190.628906 173.234375 189.847656 174.222656 188.980469 175.210938 C 187.785156 176.570312 186.304688 177.761719 184.695312 178.710938 C 186.675781 176.609375 188.609375 174.507812 189.96875 172.242188 C 190.503906 171.335938 190.957031 170.390625 191.289062 169.402344 C 191.207031 169.359375 191.246094 169.359375 191.328125 169.320312 Z M 182.636719 180.976562 C 186.222656 180.523438 189.847656 179.742188 192.933594 177.847656 C 194.292969 177.023438 195.570312 175.949219 196.4375 174.796875 C 196.476562 174.757812 196.519531 174.714844 196.519531 174.675781 L 197.753906 174.222656 C 197.714844 174.589844 197.632812 174.921875 197.464844 175.292969 C 197.261719 175.785156 196.972656 176.28125 196.640625 176.773438 C 195.941406 177.722656 195.035156 178.628906 193.964844 179.371094 C 192.730469 180.234375 191.328125 180.894531 189.929688 181.386719 C 188.652344 181.839844 187.292969 182.171875 185.933594 182.253906 C 185.4375 182.292969 184.945312 182.292969 184.449219 182.253906 C 183.585938 182.171875 182.761719 181.964844 181.976562 181.554688 C 182.019531 181.46875 182.0625 181.429688 182.101562 181.347656 C 182.429688 181.386719 182.761719 181.429688 183.089844 181.46875 C 184.777344 181.636719 186.507812 181.429688 188.15625 180.976562 C 190.339844 180.398438 192.359375 179.371094 194.128906 178.050781 C 190.835938 180.441406 186.589844 181.71875 182.636719 180.976562 Z M 186.179688 160.175781 C 186.632812 159.640625 187.003906 159.105469 187.292969 158.527344 C 188.199219 159.84375 189.023438 161.164062 189.722656 162.523438 C 190.503906 164.003906 191 165.488281 190.875 167.136719 C 190.875 167.257812 190.835938 167.382812 190.835938 167.507812 C 190.421875 170.472656 188.488281 173.316406 186.179688 175.910156 C 185.683594 176.488281 185.148438 177.0625 184.574219 177.640625 C 185.683594 175.539062 186.507812 173.4375 187.128906 171.335938 C 187.621094 169.566406 187.992188 167.796875 188.117188 166.066406 C 188.199219 165.242188 188.199219 164.417969 188.199219 163.636719 C 188.15625 164.417969 188.117188 165.199219 187.992188 166.023438 C 187.746094 167.753906 187.332031 169.523438 186.714844 171.296875 C 186.097656 173.109375 185.273438 174.960938 184.242188 176.734375 C 184.820312 175.25 185.398438 173.769531 185.726562 172.242188 C 185.972656 171.253906 186.097656 170.308594 186.136719 169.320312 C 186.136719 168.824219 186.136719 168.332031 186.054688 167.878906 C 186.015625 167.382812 185.890625 166.929688 185.769531 166.476562 C 185.890625 166.929688 185.972656 167.425781 185.972656 167.917969 C 186.015625 168.414062 186.015625 168.867188 185.972656 169.359375 C 185.890625 170.308594 185.726562 171.296875 185.4375 172.242188 C 185.109375 173.4375 184.65625 174.632812 184.121094 175.828125 C 184.160156 175.582031 184.203125 175.332031 184.242188 175.128906 C 184.53125 172.78125 184.242188 170.472656 183.421875 168.289062 C 183.421875 168.25 183.421875 168.207031 183.378906 168.164062 C 183.378906 168.164062 183.378906 168.125 183.378906 168.125 C 183.296875 167.917969 183.214844 167.710938 183.089844 167.464844 C 182.761719 166.355469 183.007812 165.035156 183.378906 164.003906 C 183.421875 163.882812 183.460938 163.800781 183.503906 163.675781 C 183.707031 163.140625 183.996094 162.644531 184.367188 162.191406 C 184.984375 161.492188 185.644531 160.832031 186.179688 160.175781 Z M 178.519531 160.75 C 178.640625 160.175781 179.136719 159.640625 179.507812 159.226562 C 179.917969 158.691406 180.371094 158.199219 180.824219 157.703125 C 181.070312 158.28125 181.648438 158.773438 182.226562 159.105469 C 183.089844 159.597656 184.203125 159.804688 184.863281 160.546875 C 184.492188 160.957031 184.078125 161.410156 183.707031 161.863281 C 183.378906 162.277344 183.089844 162.769531 182.84375 163.304688 C 182.761719 163.511719 182.679688 163.675781 182.597656 163.882812 C 182.429688 164.375 182.308594 164.871094 182.265625 165.363281 C 182.101562 164.828125 181.976562 164.292969 181.855469 163.757812 C 181.8125 163.429688 181.773438 163.058594 181.730469 162.730469 C 181.691406 162.316406 181.691406 161.863281 181.691406 161.453125 C 181.648438 161.863281 181.648438 162.277344 181.648438 162.6875 C 181.648438 163.058594 181.691406 163.429688 181.730469 163.800781 C 181.8125 164.253906 181.855469 164.746094 181.976562 165.199219 C 181.277344 164.292969 180.785156 163.265625 180.617188 162.109375 C 180.578125 161.78125 180.535156 161.453125 180.535156 161.121094 C 180.535156 161.453125 180.535156 161.78125 180.578125 162.070312 C 180.660156 162.894531 180.90625 163.675781 181.238281 164.417969 C 180.867188 163.921875 180.496094 163.46875 180.042969 163.015625 C 179.589844 162.5625 179.09375 162.109375 178.558594 161.699219 C 178.558594 161.65625 178.558594 161.574219 178.558594 161.535156 C 178.476562 161.246094 178.4375 161 178.519531 160.75 Z M 163.523438 161.285156 C 164.101562 160.296875 165.253906 159.96875 166.078125 159.308594 C 166.65625 158.898438 167.191406 158.320312 167.480469 157.621094 C 167.933594 158.238281 168.34375 158.816406 168.839844 159.390625 C 169.332031 160.050781 170.238281 160.875 169.910156 161.824219 C 169.910156 161.824219 169.910156 161.863281 169.910156 161.863281 C 169.621094 162.191406 169.332031 162.480469 169.085938 162.851562 C 168.589844 163.511719 168.179688 164.210938 167.808594 164.953125 C 168.015625 163.800781 168.054688 162.644531 167.933594 161.492188 C 168.054688 163.222656 167.765625 164.953125 167.109375 166.519531 C 167.109375 165.941406 167.109375 165.40625 167.066406 164.828125 C 167.027344 163.882812 166.902344 162.933594 166.777344 162.027344 C 166.859375 162.976562 166.945312 163.921875 166.902344 164.828125 C 166.902344 165.488281 166.902344 166.105469 166.820312 166.765625 C 166.65625 166.269531 166.492188 165.777344 166.285156 165.363281 C 165.953125 164.542969 165.542969 163.757812 165.007812 163.058594 C 164.554688 162.480469 164.019531 161.90625 163.523438 161.285156 Z M 158.789062 165.53125 C 158.871094 165.160156 158.953125 164.789062 159.035156 164.417969 C 159.488281 162.441406 160.230469 160.546875 161.054688 158.773438 C 161.300781 159.476562 161.671875 160.09375 162.042969 160.667969 C 162.617188 161.535156 163.320312 162.316406 163.9375 163.097656 C 164.511719 163.757812 164.964844 164.5 165.378906 165.324219 C 165.789062 166.105469 166.078125 166.972656 166.285156 167.835938 C 166.40625 168.25 166.492188 168.660156 166.53125 169.070312 C 166.492188 169.277344 166.492188 169.441406 166.449219 169.648438 C 166.367188 170.183594 166.367188 170.71875 166.367188 171.253906 C 166.367188 173.148438 166.695312 175.085938 167.398438 176.855469 C 167.726562 177.679688 168.097656 178.464844 168.550781 179.207031 C 167.644531 178.300781 166.820312 177.308594 166.078125 176.238281 C 165.417969 175.210938 164.84375 174.097656 164.429688 172.902344 C 164.226562 172.328125 164.058594 171.707031 163.9375 171.089844 C 163.8125 170.472656 163.730469 169.855469 163.730469 169.195312 C 163.730469 169.8125 163.773438 170.472656 163.894531 171.089844 C 163.976562 171.707031 164.140625 172.328125 164.347656 172.945312 C 164.71875 174.179688 165.253906 175.332031 165.914062 176.363281 C 166.902344 178.011719 168.136719 179.410156 169.457031 180.648438 C 167.644531 179.289062 165.996094 177.597656 164.636719 175.621094 C 162.785156 172.945312 161.464844 169.730469 160.847656 166.355469 C 160.804688 166.230469 160.804688 166.105469 160.765625 166.023438 C 160.765625 166.148438 160.804688 166.230469 160.804688 166.355469 C 161.300781 169.773438 162.535156 173.109375 164.308594 175.910156 C 165.789062 178.257812 167.644531 180.316406 169.785156 181.839844 C 167.355469 180.933594 164.964844 179.699219 162.949219 177.761719 C 161.464844 176.363281 160.1875 174.507812 159.40625 172.449219 C 158.457031 170.144531 158.375 167.796875 158.789062 165.53125 Z M 168.507812 179.121094 Z M 154.832031 180.851562 C 153.722656 179.082031 152.816406 177.105469 151.992188 175.085938 C 154.460938 174.425781 157.015625 173.769531 159.527344 174.960938 C 159.570312 175.003906 159.613281 175.003906 159.652344 175.003906 C 160.230469 175.992188 160.929688 176.898438 161.671875 177.679688 C 163.195312 179.289062 164.964844 180.523438 166.820312 181.429688 C 167.972656 182.007812 169.125 182.460938 170.320312 182.828125 C 168.425781 182.828125 166.492188 182.375 164.679688 181.429688 C 163.402344 180.769531 162.125 179.90625 160.886719 179.082031 C 159.613281 178.257812 158.292969 177.515625 156.894531 177.1875 C 158.292969 177.558594 159.570312 178.339844 160.804688 179.207031 C 162.042969 180.070312 163.277344 180.976562 164.554688 181.71875 C 166.53125 182.828125 168.671875 183.324219 170.816406 183.324219 C 170.238281 183.449219 169.621094 183.53125 169.003906 183.570312 C 167.851562 183.613281 166.65625 183.488281 165.5 183.242188 C 164.347656 182.953125 163.195312 182.542969 162.042969 182.046875 C 160.886719 181.554688 159.777344 180.933594 158.664062 180.316406 C 159.777344 180.976562 160.886719 181.636719 162 182.171875 C 163.152344 182.707031 164.308594 183.199219 165.460938 183.53125 C 166.65625 183.859375 167.851562 184.023438 169.042969 184.023438 C 170.15625 184.023438 171.226562 183.820312 172.257812 183.449219 C 169.414062 184.972656 166.449219 186.496094 163.070312 186.371094 C 161.507812 186.289062 159.859375 185.835938 158.417969 184.808594 C 157.015625 183.941406 155.820312 182.460938 154.832031 180.851562 Z M 159.816406 189.007812 C 158.582031 188.308594 157.511719 187.238281 156.6875 185.878906 L 158.003906 185.714844 C 161.054688 187.898438 164.59375 187.730469 167.601562 186.703125 C 169.578125 186 171.433594 184.972656 173.285156 183.984375 C 170.566406 187.03125 166.613281 189.089844 162.371094 188.679688 C 164.636719 189.007812 166.945312 188.597656 168.960938 187.691406 C 170.816406 186.867188 172.503906 185.589844 173.90625 184.023438 C 173.988281 184.066406 174.070312 184.105469 174.152344 184.105469 C 173.039062 186.539062 170.773438 188.144531 168.425781 189.132812 C 165.832031 190.246094 162.699219 190.699219 159.816406 189.007812 Z M 174.441406 188.925781 C 172.710938 189.75 170.773438 189.957031 168.839844 189.996094 C 169.992188 189.503906 171.144531 188.84375 172.132812 188.0625 C 173.371094 187.074219 174.359375 185.835938 174.976562 184.394531 C 175.46875 184.519531 175.964844 184.601562 176.457031 184.640625 C 175.882812 185.960938 174.851562 187.15625 173.535156 187.8125 C 174.894531 187.195312 176.046875 186.085938 176.707031 184.683594 C 177.199219 184.726562 177.695312 184.808594 178.1875 184.890625 C 178.1875 184.890625 178.230469 184.890625 178.230469 184.890625 C 177.613281 186.703125 176.128906 188.101562 174.441406 188.925781 Z M 179.054688 182.5 C 179.09375 181.964844 179.175781 181.429688 179.300781 180.851562 C 179.382812 180.441406 179.507812 179.988281 179.628906 179.574219 C 179.796875 178.917969 180 178.257812 180.125 177.597656 C 180.617188 175.414062 180.496094 173.191406 179.835938 171.132812 C 180.414062 173.234375 180.414062 175.414062 179.878906 177.558594 C 179.710938 178.175781 179.546875 178.792969 179.34375 179.410156 C 179.21875 179.863281 179.054688 180.316406 178.929688 180.769531 C 178.765625 181.304688 178.640625 181.882812 178.601562 182.460938 C 178.601562 182.582031 178.601562 182.707031 178.601562 182.828125 C 178.148438 182.007812 177.777344 181.140625 177.488281 180.234375 C 177.28125 179.574219 177.117188 178.917969 176.953125 178.214844 C 176.953125 178.132812 176.910156 178.050781 176.910156 177.96875 C 176.789062 177.351562 176.707031 176.773438 176.582031 176.15625 C 176.5 175.457031 176.417969 174.796875 176.335938 174.097656 C 176.253906 173.398438 176.171875 172.695312 176.089844 172.039062 C 175.921875 170.636719 175.757812 169.277344 175.429688 167.917969 C 175.675781 169.277344 175.800781 170.679688 175.882812 172.039062 C 175.921875 172.738281 175.964844 173.4375 176.003906 174.136719 C 176.046875 174.839844 176.128906 175.539062 176.171875 176.238281 C 176.210938 176.734375 176.292969 177.1875 176.335938 177.679688 C 176.375 177.886719 176.375 178.09375 176.417969 178.339844 C 176.542969 179.039062 176.664062 179.742188 176.871094 180.441406 C 177.078125 181.265625 177.363281 182.046875 177.695312 182.828125 C 177.53125 182.625 177.363281 182.375 177.199219 182.171875 C 176.746094 181.46875 176.335938 180.769531 175.964844 180.027344 C 175.46875 179 175.058594 177.929688 174.769531 176.816406 C 174.605469 176.320312 174.480469 175.785156 174.359375 175.292969 C 173.574219 171.996094 173.371094 168.617188 172.957031 165.242188 C 173.328125 168.578125 173.410156 171.996094 174.109375 175.332031 C 174.191406 175.746094 174.277344 176.15625 174.398438 176.570312 C 174.730469 177.804688 175.097656 179.039062 175.636719 180.195312 C 175.964844 180.976562 176.375 181.71875 176.828125 182.460938 C 177.199219 183.035156 177.570312 183.570312 178.023438 184.066406 C 177.898438 184.066406 177.777344 184.023438 177.695312 184.023438 C 176.253906 183.324219 174.894531 182.417969 173.738281 181.304688 C 172.339844 179.945312 171.1875 178.214844 170.691406 176.238281 C 171.105469 178.257812 172.214844 180.070312 173.574219 181.511719 C 174.441406 182.417969 175.429688 183.199219 176.457031 183.859375 C 176.171875 183.820312 175.882812 183.777344 175.550781 183.695312 C 174.480469 183.488281 173.492188 183.035156 172.546875 182.375 C 170.773438 181.140625 169.332031 179.289062 168.386719 177.226562 C 167.933594 176.238281 167.601562 175.210938 167.398438 174.140625 C 167.230469 173.398438 167.066406 172.613281 167.109375 171.832031 C 167.148438 170.882812 167.191406 169.9375 167.355469 168.988281 C 167.4375 168.371094 167.601562 167.710938 167.808594 167.09375 C 168.179688 165.902344 168.757812 164.789062 169.457031 163.800781 C 170.816406 161.863281 172.75 160.546875 174.109375 158.691406 C 175.386719 160.296875 177.078125 161.328125 178.558594 162.644531 C 183.625 167.011719 184.984375 174.015625 182.019531 179.988281 C 181.894531 180.234375 181.773438 180.480469 181.648438 180.769531 C 181.523438 180.976562 181.402344 181.183594 181.277344 181.386719 C 181.070312 181.636719 180.785156 181.839844 180.535156 182.046875 C 180.042969 182.460938 179.589844 182.914062 179.09375 183.324219 C 179.054688 182.996094 179.054688 182.746094 179.054688 182.5 Z M 179.21875 184.273438 C 179.21875 184.230469 179.257812 184.1875 179.300781 184.148438 C 179.425781 183.984375 179.628906 183.859375 179.753906 183.695312 C 179.796875 183.652344 180.042969 183.324219 180.125 183.367188 C 181.523438 184.066406 183.171875 184.148438 184.613281 183.695312 C 183.171875 184.066406 181.609375 183.859375 180.289062 183.160156 C 180.453125 182.996094 180.617188 182.828125 180.785156 182.707031 C 180.988281 182.542969 181.195312 182.335938 181.402344 182.128906 C 182.761719 182.871094 184.285156 183.078125 185.808594 182.953125 C 187.085938 182.871094 188.363281 182.582031 189.558594 182.171875 C 188.773438 182.707031 187.992188 183.242188 187.210938 183.734375 C 186.386719 184.1875 185.519531 184.601562 184.613281 184.890625 C 183.75 185.179688 182.800781 185.300781 181.855469 185.261719 C 181.402344 185.21875 180.90625 185.179688 180.453125 185.054688 C 180.042969 184.929688 179.546875 184.847656 179.257812 184.558594 C 179.21875 184.519531 179.175781 184.394531 179.21875 184.273438 Z M 176.871094 196.546875 C 176.253906 196.382812 175.636719 196.21875 175.015625 196.050781 C 175.800781 195.476562 176.542969 194.898438 177.324219 194.40625 C 178.1875 195.144531 179.382812 195.394531 180.535156 195.433594 C 181.238281 195.476562 181.976562 195.433594 182.679688 195.351562 C 183.378906 195.269531 184.121094 195.1875 184.820312 194.980469 C 184.410156 195.144531 183.996094 195.3125 183.542969 195.476562 C 183.253906 195.597656 182.96875 195.679688 182.636719 195.765625 C 182.347656 195.847656 182.019531 195.886719 181.730469 195.886719 C 182.0625 195.886719 182.347656 195.847656 182.679688 195.804688 C 182.96875 195.722656 183.296875 195.640625 183.585938 195.558594 C 184.039062 195.394531 184.53125 195.230469 184.984375 195.0625 C 184.574219 195.394531 184.160156 195.679688 183.667969 195.886719 C 183.050781 196.175781 182.308594 196.339844 181.609375 196.339844 C 181.238281 196.339844 180.90625 196.300781 180.578125 196.21875 L 179.546875 196.050781 C 178.847656 195.929688 178.1875 195.804688 177.53125 195.640625 C 178.1875 195.804688 178.890625 195.96875 179.546875 196.09375 L 180.578125 196.300781 C 180.90625 196.339844 181.277344 196.421875 181.648438 196.421875 C 182.347656 196.464844 183.089844 196.300781 183.75 196.011719 C 184.285156 195.765625 184.738281 195.476562 185.191406 195.144531 C 185.027344 195.351562 184.777344 195.558594 184.574219 195.722656 C 184.574219 195.722656 184.53125 195.765625 184.53125 195.765625 C 183.996094 196.175781 183.460938 196.585938 182.84375 196.875 C 182.226562 197.164062 181.523438 197.289062 180.824219 197.328125 C 179.425781 197.328125 178.105469 196.917969 176.871094 196.546875 Z M 182.925781 198.070312 C 182.308594 198.484375 181.609375 198.769531 180.867188 198.894531 C 180.082031 199.058594 179.21875 199.058594 178.519531 198.730469 C 177.777344 198.398438 177.28125 197.699219 177.363281 196.917969 C 177.777344 197.039062 178.1875 197.164062 178.601562 197.246094 C 179.21875 197.371094 179.835938 197.492188 180.453125 197.492188 C 180.332031 197.535156 180.207031 197.578125 180.042969 197.578125 C 179.589844 197.660156 179.136719 197.742188 178.683594 197.660156 C 179.136719 197.78125 179.589844 197.742188 180.082031 197.660156 C 180.496094 197.578125 180.867188 197.492188 181.277344 197.453125 C 180.414062 197.78125 179.546875 198.03125 178.640625 198.195312 C 179.753906 198.03125 180.90625 197.742188 181.976562 197.328125 C 182.226562 197.289062 182.472656 197.207031 182.71875 197.125 C 183.460938 196.835938 184.121094 196.339844 184.695312 195.847656 C 184.695312 195.847656 184.738281 195.804688 184.738281 195.804688 C 184.902344 195.679688 185.066406 195.558594 185.191406 195.394531 C 184.695312 196.503906 183.914062 197.453125 182.925781 198.070312 Z M 181.15625 195.230469 C 180.042969 195.230469 178.847656 195.144531 177.898438 194.527344 C 177.652344 194.40625 177.445312 194.199219 177.28125 194.035156 C 177.199219 193.953125 177.035156 193.828125 177.035156 193.664062 C 177.035156 193.539062 177.117188 193.417969 177.199219 193.332031 C 177.40625 193.128906 177.695312 192.964844 177.941406 192.839844 C 178.230469 192.675781 178.476562 192.550781 178.804688 192.46875 C 179.960938 192.097656 181.195312 192.058594 182.347656 192.46875 C 182.800781 192.632812 183.253906 192.839844 183.667969 193.085938 C 184.121094 193.539062 184.613281 193.953125 185.109375 194.363281 C 184.449219 193.910156 183.707031 193.621094 182.96875 193.417969 C 182.101562 193.167969 181.195312 193.085938 180.332031 193.085938 C 181.195312 193.128906 182.101562 193.25 182.96875 193.5 C 183.585938 193.664062 184.203125 193.953125 184.738281 194.28125 C 182.761719 193.664062 180.703125 193.582031 178.804688 194.035156 C 180.90625 193.582031 183.132812 193.828125 185.191406 194.609375 C 183.914062 195.0625 182.515625 195.1875 181.15625 195.230469 Z M 200.597656 201.984375 C 200.679688 201.902344 200.761719 201.777344 200.84375 201.695312 C 201.007812 201.53125 201.132812 201.324219 201.296875 201.160156 C 201.421875 200.953125 201.585938 200.789062 201.667969 200.582031 C 201.792969 200.378906 201.875 200.171875 201.914062 199.925781 C 201.875 200.171875 201.75 200.378906 201.625 200.582031 C 201.503906 200.789062 201.378906 200.953125 201.214844 201.160156 C 201.050781 201.324219 200.925781 201.488281 200.761719 201.65625 C 200.679688 201.777344 200.554688 201.859375 200.472656 201.941406 C 200.472656 201.941406 200.433594 201.902344 200.433594 201.902344 C 200.636719 201.570312 200.800781 201.285156 200.96875 200.914062 C 201.050781 200.707031 201.132812 200.460938 201.171875 200.253906 C 201.214844 200.007812 201.253906 199.800781 201.296875 199.554688 C 201.378906 198.605469 201.171875 197.699219 201.089844 196.753906 C 201.171875 197.699219 201.296875 198.605469 201.214844 199.554688 C 201.171875 199.800781 201.132812 200.007812 201.089844 200.210938 C 201.050781 200.417969 200.96875 200.664062 200.84375 200.871094 C 200.679688 201.203125 200.515625 201.53125 200.308594 201.820312 C 200.679688 200.832031 200.679688 199.675781 200.390625 198.6875 C 200.679688 199.675781 200.597656 200.789062 200.226562 201.738281 C 200.226562 201.738281 200.183594 201.738281 200.183594 201.695312 C 199.894531 200.953125 199.773438 200.128906 199.894531 199.347656 C 200.0625 198.441406 200.554688 197.617188 200.800781 196.710938 C 200.925781 196.339844 200.96875 195.96875 200.96875 195.597656 C 201.214844 195.96875 201.460938 196.382812 201.667969 196.835938 C 201.914062 197.371094 202.160156 197.945312 202.328125 198.566406 C 202.492188 199.140625 202.53125 199.800781 202.410156 200.417969 C 202.285156 200.914062 202.039062 201.324219 201.667969 201.65625 C 201.421875 201.859375 201.089844 202.023438 200.761719 202.023438 C 200.636719 201.984375 200.636719 201.984375 200.597656 201.984375 Z M 210.851562 213.0625 C 210.851562 213.105469 210.851562 213.105469 210.851562 213.0625 C 210.152344 210.921875 208.917969 208.902344 207.394531 207.214844 C 205.582031 205.15625 203.316406 203.589844 200.96875 202.191406 C 201.625 202.023438 202.203125 201.449219 202.449219 200.789062 C 202.902344 199.554688 202.449219 198.152344 201.957031 197.039062 C 201.667969 196.382812 201.296875 195.722656 200.886719 195.144531 C 200.800781 195.0625 200.679688 195.144531 200.679688 195.230469 C 200.886719 196.175781 200.433594 197.125 200.101562 197.945312 C 199.9375 198.398438 199.730469 198.8125 199.691406 199.265625 C 199.609375 199.71875 199.609375 200.171875 199.648438 200.625 C 199.691406 200.914062 199.773438 201.242188 199.855469 201.53125 C 199.113281 201.117188 198.414062 200.75 197.671875 200.335938 C 197.011719 200.007812 196.355469 199.636719 195.695312 199.304688 C 195.449219 197.371094 195.199219 195.433594 194.789062 193.539062 C 194.746094 193.375 194.707031 193.167969 194.664062 192.964844 C 194.746094 192.878906 194.789062 192.796875 194.828125 192.714844 C 195.242188 191.933594 194.914062 190.902344 194.046875 190.613281 C 193.222656 190.367188 192.277344 190.902344 192.109375 191.769531 C 192.027344 192.222656 192.195312 192.714844 192.480469 193.046875 C 192.648438 193.210938 192.851562 193.332031 193.058594 193.457031 C 193.140625 193.5 193.222656 193.5 193.347656 193.539062 C 193.386719 193.664062 193.386719 193.785156 193.429688 193.871094 C 193.511719 194.15625 193.554688 194.445312 193.59375 194.734375 C 193.71875 195.269531 193.800781 195.804688 193.882812 196.339844 C 194.007812 197.039062 194.089844 197.78125 194.171875 198.484375 C 191.988281 197.289062 189.804688 196.050781 187.785156 194.570312 C 184.53125 192.222656 181.691406 189.296875 179.835938 185.753906 C 180.90625 186.167969 182.101562 186.25 183.253906 186.085938 C 184.945312 185.835938 186.550781 185.09375 187.992188 184.230469 C 189.394531 185.011719 190.753906 185.796875 192.109375 186.539062 C 195.695312 188.554688 198.90625 190.699219 201.667969 192.921875 C 204.46875 195.1875 206.773438 197.660156 208.503906 200.296875 C 210.316406 203.011719 211.222656 206.0625 211.222656 209.398438 C 211.183594 210.675781 211.058594 211.910156 210.851562 213.0625 Z M 210.851562 213.0625 " fill-opacity="1" fill-rule="nonzero"/></g><g clip-path="url(#64a3c2f24e)"><path fill="#000000" d="M 279.957031 193.5625 C 281.789062 180.105469 280.851562 166.28125 277.070312 153.3125 C 275.199219 146.804688 272.640625 140.542969 269.46875 134.566406 C 269.101562 133.796875 268.65625 133.105469 268.25 132.371094 L 266.988281 130.175781 C 266.09375 128.753906 265.160156 127.332031 264.265625 125.90625 C 263.289062 124.527344 262.3125 123.144531 261.296875 121.800781 L 259.710938 119.808594 C 259.179688 119.160156 258.652344 118.46875 258.082031 117.859375 C 249.300781 107.652344 238.445312 99.195312 226.289062 93.460938 C 214.089844 87.8125 200.714844 84.679688 187.257812 84.519531 C 173.839844 84.273438 160.300781 86.835938 147.980469 92.242188 C 135.621094 97.527344 124.441406 105.539062 115.332031 115.457031 C 106.226562 125.421875 99.273438 137.292969 95.085938 150.140625 C 92.929688 156.5625 91.546875 163.191406 90.855469 169.941406 C 90.164062 176.691406 90.125 183.480469 90.816406 190.269531 C 90.367188 186.894531 90.085938 183.519531 90.003906 180.105469 C 89.960938 179.25 90.003906 178.398438 90.003906 177.542969 L 90.042969 174.980469 C 90.042969 174.128906 90.085938 173.273438 90.164062 172.421875 L 90.328125 169.859375 C 90.898438 163.070312 92.15625 156.320312 94.148438 149.816406 C 98.214844 136.761719 105.085938 124.605469 114.195312 114.402344 C 123.300781 104.195312 134.6875 95.984375 147.25 90.453125 C 159.773438 84.925781 173.597656 82.28125 187.296875 82.484375 C 201 82.730469 214.703125 85.941406 227.0625 91.835938 C 239.421875 97.773438 250.480469 106.433594 259.222656 116.964844 C 259.792969 117.613281 260.320312 118.304688 260.847656 118.957031 L 262.433594 120.988281 C 263.449219 122.371094 264.425781 123.792969 265.402344 125.175781 C 266.296875 126.640625 267.230469 128.0625 268.125 129.527344 L 269.386719 131.761719 C 269.792969 132.496094 270.242188 133.226562 270.605469 134 C 273.738281 140.058594 276.257812 146.480469 278.046875 153.066406 C 279.796875 159.652344 280.851562 166.445312 281.175781 173.234375 C 281.300781 176.648438 281.378906 180.023438 281.136719 183.4375 C 280.933594 186.855469 280.527344 190.230469 279.957031 193.5625 Z M 279.957031 193.5625 " fill-opacity="1" fill-rule="nonzero"/></g><g fill="#000000" fill-opacity="1"><g transform="translate(117.965016, 252.476768)"><g><path d="M 3.140625 3.03125 C 2.691406 2.65625 2.316406 2.242188 2.015625 1.796875 C 1.710938 1.347656 1.488281 0.867188 1.34375 0.359375 C 1.320312 0.253906 1.3125 0.148438 1.3125 0.046875 C 1.3125 -0.0546875 1.328125 -0.15625 1.359375 -0.25 C 1.484375 -0.582031 1.691406 -0.953125 1.984375 -1.359375 C 2.273438 -1.773438 2.570312 -2.148438 2.875 -2.484375 C 2.925781 -2.554688 2.992188 -2.582031 3.078125 -2.5625 C 3.171875 -2.550781 3.257812 -2.507812 3.34375 -2.4375 C 3.425781 -2.375 3.476562 -2.304688 3.5 -2.234375 C 3.519531 -2.171875 3.507812 -2.09375 3.46875 -2 C 3.050781 -1.03125 2.878906 -0.144531 2.953125 0.65625 C 3.023438 1.457031 3.335938 2.09375 3.890625 2.5625 C 4.234375 2.84375 4.585938 3.003906 4.953125 3.046875 C 5.328125 3.097656 5.679688 3.046875 6.015625 2.890625 C 6.347656 2.742188 6.632812 2.523438 6.875 2.234375 C 7.1875 1.867188 7.378906 1.515625 7.453125 1.171875 C 7.523438 0.828125 7.507812 0.445312 7.40625 0.03125 C 7.3125 -0.375 7.148438 -0.851562 6.921875 -1.40625 C 6.722656 -2.019531 6.53125 -2.632812 6.34375 -3.25 C 6.164062 -3.863281 6.101562 -4.46875 6.15625 -5.0625 C 6.21875 -5.664062 6.476562 -6.242188 6.9375 -6.796875 C 7.425781 -7.378906 8.003906 -7.769531 8.671875 -7.96875 C 9.335938 -8.164062 10.039062 -8.164062 10.78125 -7.96875 C 11.53125 -7.78125 12.253906 -7.394531 12.953125 -6.8125 C 13.347656 -6.488281 13.675781 -6.144531 13.9375 -5.78125 C 14.195312 -5.425781 14.394531 -5.125 14.53125 -4.875 C 14.59375 -4.738281 14.625 -4.613281 14.625 -4.5 C 14.632812 -4.394531 14.597656 -4.257812 14.515625 -4.09375 C 14.398438 -3.820312 14.238281 -3.515625 14.03125 -3.171875 C 13.832031 -2.835938 13.597656 -2.503906 13.328125 -2.171875 C 13.210938 -2.035156 13.054688 -2.046875 12.859375 -2.203125 C 12.785156 -2.265625 12.722656 -2.351562 12.671875 -2.46875 C 12.617188 -2.59375 12.617188 -2.695312 12.671875 -2.78125 C 12.984375 -3.539062 13.101562 -4.210938 13.03125 -4.796875 C 12.96875 -5.390625 12.695312 -5.882812 12.21875 -6.28125 C 11.90625 -6.550781 11.582031 -6.726562 11.25 -6.8125 C 10.925781 -6.894531 10.601562 -6.878906 10.28125 -6.765625 C 9.957031 -6.660156 9.648438 -6.429688 9.359375 -6.078125 C 9.128906 -5.804688 9.007812 -5.476562 9 -5.09375 C 9 -4.707031 9.066406 -4.269531 9.203125 -3.78125 C 9.347656 -3.289062 9.519531 -2.738281 9.71875 -2.125 C 9.96875 -1.4375 10.140625 -0.800781 10.234375 -0.21875 C 10.328125 0.363281 10.3125 0.910156 10.1875 1.421875 C 10.070312 1.929688 9.804688 2.4375 9.390625 2.9375 C 8.816406 3.625 8.1875 4.070312 7.5 4.28125 C 6.8125 4.488281 6.09375 4.484375 5.34375 4.265625 C 4.601562 4.046875 3.867188 3.632812 3.140625 3.03125 Z M 3.140625 3.03125 "/></g></g></g><g fill="#000000" fill-opacity="1"><g transform="translate(132.060126, 263.255633)"><g><path d="M 0.65625 0.46875 C 0.539062 0.40625 0.457031 0.332031 0.40625 0.25 C 0.351562 0.164062 0.347656 0.0859375 0.390625 0.015625 C 0.492188 -0.160156 0.707031 -0.191406 1.03125 -0.078125 C 1.53125 0.0976562 1.925781 0.160156 2.21875 0.109375 C 2.519531 0.0664062 2.78125 -0.140625 3 -0.515625 L 7.6875 -8.5 C 7.914062 -8.882812 8 -9.207031 7.9375 -9.46875 C 7.875 -9.726562 7.640625 -10.035156 7.234375 -10.390625 C 6.972656 -10.628906 6.898438 -10.84375 7.015625 -11.03125 C 7.054688 -11.101562 7.128906 -11.132812 7.234375 -11.125 C 7.335938 -11.113281 7.441406 -11.078125 7.546875 -11.015625 C 7.828125 -10.847656 8.097656 -10.679688 8.359375 -10.515625 C 8.617188 -10.347656 8.875 -10.1875 9.125 -10.03125 C 9.375 -9.875 9.628906 -9.71875 9.890625 -9.5625 C 10.128906 -9.414062 10.375 -9.273438 10.625 -9.140625 C 10.882812 -9.003906 11.148438 -8.859375 11.421875 -8.703125 C 11.703125 -8.554688 11.984375 -8.40625 12.265625 -8.25 C 12.378906 -8.175781 12.460938 -8.097656 12.515625 -8.015625 C 12.566406 -7.941406 12.566406 -7.863281 12.515625 -7.78125 C 12.460938 -7.675781 12.378906 -7.617188 12.265625 -7.609375 C 12.160156 -7.609375 12.03125 -7.625 11.875 -7.65625 C 11.320312 -7.820312 10.914062 -7.867188 10.65625 -7.796875 C 10.40625 -7.734375 10.164062 -7.515625 9.9375 -7.140625 L 5.28125 0.796875 C 5.0625 1.160156 5 1.476562 5.09375 1.75 C 5.195312 2.019531 5.4375 2.34375 5.8125 2.71875 C 5.9375 2.851562 6.023438 2.96875 6.078125 3.0625 C 6.128906 3.15625 6.128906 3.25 6.078125 3.34375 C 6.023438 3.425781 5.953125 3.460938 5.859375 3.453125 C 5.773438 3.441406 5.675781 3.398438 5.5625 3.328125 C 5.269531 3.160156 4.988281 2.988281 4.71875 2.8125 C 4.445312 2.644531 4.179688 2.476562 3.921875 2.3125 C 3.671875 2.144531 3.425781 1.988281 3.1875 1.84375 C 2.925781 1.6875 2.65625 1.535156 2.375 1.390625 C 2.09375 1.242188 1.804688 1.09375 1.515625 0.9375 C 1.222656 0.789062 0.9375 0.632812 0.65625 0.46875 Z M 0.65625 0.46875 "/></g></g></g><g fill="#000000" fill-opacity="1"><g transform="translate(145.420197, 270.541716)"><g><path d="M 0.84375 0.4375 C 0.707031 0.382812 0.609375 0.3125 0.546875 0.21875 C 0.492188 0.125 0.476562 0.046875 0.5 -0.015625 C 0.539062 -0.117188 0.613281 -0.179688 0.71875 -0.203125 C 0.832031 -0.222656 0.9375 -0.234375 1.03125 -0.234375 C 1.53125 -0.171875 1.921875 -0.179688 2.203125 -0.265625 C 2.492188 -0.359375 2.710938 -0.601562 2.859375 -1 L 6.140625 -9.78125 C 6.253906 -10.070312 6.300781 -10.304688 6.28125 -10.484375 C 6.257812 -10.660156 6.175781 -10.820312 6.03125 -10.96875 C 5.894531 -11.113281 5.675781 -11.28125 5.375 -11.46875 C 5.0625 -11.664062 4.941406 -11.863281 5.015625 -12.0625 C 5.046875 -12.144531 5.113281 -12.191406 5.21875 -12.203125 C 5.332031 -12.210938 5.441406 -12.195312 5.546875 -12.15625 C 5.867188 -12.03125 6.171875 -11.90625 6.453125 -11.78125 C 6.734375 -11.664062 7.003906 -11.550781 7.265625 -11.4375 C 7.535156 -11.332031 7.804688 -11.226562 8.078125 -11.125 C 8.367188 -11.007812 8.660156 -10.898438 8.953125 -10.796875 C 9.253906 -10.703125 9.5625 -10.601562 9.875 -10.5 C 10.195312 -10.40625 10.503906 -10.300781 10.796875 -10.1875 C 10.929688 -10.144531 11.03125 -10.085938 11.09375 -10.015625 C 11.15625 -9.941406 11.171875 -9.859375 11.140625 -9.765625 C 11.097656 -9.660156 11.023438 -9.59375 10.921875 -9.5625 C 10.816406 -9.539062 10.679688 -9.539062 10.515625 -9.5625 C 9.960938 -9.613281 9.539062 -9.609375 9.25 -9.546875 C 8.957031 -9.492188 8.75 -9.285156 8.625 -8.921875 L 5.359375 -0.203125 C 5.222656 0.171875 5.207031 0.472656 5.3125 0.703125 C 5.414062 0.941406 5.695312 1.144531 6.15625 1.3125 L 8.234375 2.09375 C 8.523438 2.195312 8.804688 2.238281 9.078125 2.21875 C 9.359375 2.207031 9.601562 2.160156 9.8125 2.078125 C 10.125 1.953125 10.394531 1.800781 10.625 1.625 C 10.863281 1.457031 11.113281 1.25 11.375 1 C 11.53125 0.84375 11.664062 0.726562 11.78125 0.65625 C 11.894531 0.582031 11.988281 0.5625 12.0625 0.59375 C 12.15625 0.625 12.203125 0.6875 12.203125 0.78125 C 12.210938 0.882812 12.203125 0.976562 12.171875 1.0625 C 12.160156 1.082031 12.140625 1.117188 12.109375 1.171875 C 12.078125 1.234375 12.050781 1.285156 12.03125 1.328125 C 11.789062 1.648438 11.582031 1.929688 11.40625 2.171875 C 11.238281 2.410156 11.085938 2.644531 10.953125 2.875 C 10.816406 3.113281 10.675781 3.367188 10.53125 3.640625 C 10.488281 3.734375 10.4375 3.804688 10.375 3.859375 C 10.3125 3.921875 10.21875 3.929688 10.09375 3.890625 C 9.71875 3.742188 9.265625 3.5625 8.734375 3.34375 C 8.210938 3.132812 7.648438 2.914062 7.046875 2.6875 C 6.441406 2.457031 5.835938 2.222656 5.234375 1.984375 C 4.640625 1.742188 4.082031 1.523438 3.5625 1.328125 C 3.269531 1.222656 2.941406 1.109375 2.578125 0.984375 C 2.210938 0.867188 1.863281 0.757812 1.53125 0.65625 C 1.207031 0.5625 0.976562 0.488281 0.84375 0.4375 Z M 0.84375 0.4375 "/></g></g></g><g fill="#000000" fill-opacity="1"><g transform="translate(164.640048, 277.154454)"><g><path d="M 7.21875 1.1875 C 7.125 1.175781 7.054688 1.109375 7.015625 0.984375 C 6.984375 0.867188 6.941406 0.738281 6.890625 0.59375 L 3.3125 -10.96875 C 3.207031 -11.320312 3.0625 -11.617188 2.875 -11.859375 C 2.695312 -12.109375 2.425781 -12.3125 2.0625 -12.46875 C 1.894531 -12.53125 1.753906 -12.597656 1.640625 -12.671875 C 1.535156 -12.753906 1.488281 -12.847656 1.5 -12.953125 C 1.507812 -13.046875 1.570312 -13.109375 1.6875 -13.140625 C 1.8125 -13.171875 1.941406 -13.179688 2.078125 -13.171875 C 2.460938 -13.128906 2.863281 -13.066406 3.28125 -12.984375 C 3.695312 -12.910156 4.085938 -12.851562 4.453125 -12.8125 C 4.847656 -12.769531 5.242188 -12.738281 5.640625 -12.71875 C 6.046875 -12.695312 6.414062 -12.664062 6.75 -12.625 C 6.925781 -12.601562 7.070312 -12.5625 7.1875 -12.5 C 7.300781 -12.445312 7.351562 -12.375 7.34375 -12.28125 C 7.332031 -12.175781 7.257812 -12.097656 7.125 -12.046875 C 7 -11.992188 6.832031 -11.957031 6.625 -11.9375 C 6.414062 -11.914062 6.28125 -11.847656 6.21875 -11.734375 C 6.164062 -11.628906 6.128906 -11.503906 6.109375 -11.359375 C 6.097656 -11.234375 6.101562 -11.09375 6.125 -10.9375 C 6.144531 -10.78125 6.15625 -10.679688 6.15625 -10.640625 C 6.351562 -9.929688 6.546875 -9.25 6.734375 -8.59375 C 6.929688 -7.9375 7.125 -7.289062 7.3125 -6.65625 C 7.5 -6.019531 7.691406 -5.375 7.890625 -4.71875 C 8.085938 -4.070312 8.289062 -3.382812 8.5 -2.65625 C 8.550781 -2.507812 8.597656 -2.429688 8.640625 -2.421875 C 8.679688 -2.421875 8.738281 -2.484375 8.8125 -2.609375 L 10.390625 -5.140625 C 10.441406 -5.234375 10.484375 -5.3125 10.515625 -5.375 C 10.546875 -5.4375 10.566406 -5.5 10.578125 -5.5625 C 10.578125 -5.625 10.570312 -5.691406 10.5625 -5.765625 C 10.550781 -5.835938 10.53125 -5.921875 10.5 -6.015625 L 9.1875 -10.15625 C 9.070312 -10.53125 8.878906 -10.863281 8.609375 -11.15625 C 8.335938 -11.445312 8.015625 -11.664062 7.640625 -11.8125 C 7.472656 -11.882812 7.347656 -11.957031 7.265625 -12.03125 C 7.179688 -12.101562 7.144531 -12.191406 7.15625 -12.296875 C 7.164062 -12.390625 7.21875 -12.453125 7.3125 -12.484375 C 7.40625 -12.523438 7.515625 -12.539062 7.640625 -12.53125 C 7.898438 -12.5 8.175781 -12.457031 8.46875 -12.40625 C 8.769531 -12.351562 9.066406 -12.304688 9.359375 -12.265625 C 9.660156 -12.222656 9.929688 -12.1875 10.171875 -12.15625 C 10.535156 -12.113281 10.90625 -12.082031 11.28125 -12.0625 C 11.65625 -12.039062 12.003906 -12.007812 12.328125 -11.96875 C 12.523438 -11.945312 12.675781 -11.90625 12.78125 -11.84375 C 12.894531 -11.789062 12.945312 -11.71875 12.9375 -11.625 C 12.925781 -11.550781 12.875 -11.488281 12.78125 -11.4375 C 12.695312 -11.382812 12.582031 -11.332031 12.4375 -11.28125 C 12.300781 -11.238281 12.191406 -11.175781 12.109375 -11.09375 C 11.953125 -11.070312 11.859375 -11.007812 11.828125 -10.90625 C 11.796875 -10.8125 11.789062 -10.707031 11.8125 -10.59375 C 11.84375 -10.476562 11.878906 -10.304688 11.921875 -10.078125 C 11.972656 -9.847656 12.035156 -9.601562 12.109375 -9.34375 C 12.179688 -9.09375 12.25 -8.84375 12.3125 -8.59375 C 12.382812 -8.351562 12.4375 -8.175781 12.46875 -8.0625 C 12.53125 -7.875 12.585938 -7.785156 12.640625 -7.796875 C 12.691406 -7.816406 12.757812 -7.890625 12.84375 -8.015625 C 12.96875 -8.203125 13.101562 -8.441406 13.25 -8.734375 C 13.394531 -9.023438 13.535156 -9.3125 13.671875 -9.59375 C 13.804688 -9.875 13.910156 -10.078125 13.984375 -10.203125 C 14.046875 -10.304688 14.082031 -10.410156 14.09375 -10.515625 C 14.113281 -10.703125 14.050781 -10.847656 13.90625 -10.953125 C 13.769531 -11.054688 13.625 -11.15625 13.46875 -11.25 C 13.320312 -11.351562 13.257812 -11.457031 13.28125 -11.5625 C 13.289062 -11.65625 13.332031 -11.722656 13.40625 -11.765625 C 13.476562 -11.804688 13.617188 -11.816406 13.828125 -11.796875 C 14.160156 -11.753906 14.378906 -11.71875 14.484375 -11.6875 C 14.585938 -11.65625 14.738281 -11.628906 14.9375 -11.609375 C 15.15625 -11.585938 15.359375 -11.578125 15.546875 -11.578125 C 15.742188 -11.578125 16.015625 -11.554688 16.359375 -11.515625 C 16.515625 -11.503906 16.644531 -11.46875 16.75 -11.40625 C 16.851562 -11.351562 16.898438 -11.273438 16.890625 -11.171875 C 16.878906 -11.054688 16.816406 -10.972656 16.703125 -10.921875 C 16.585938 -10.878906 16.445312 -10.847656 16.28125 -10.828125 C 15.84375 -10.773438 15.523438 -10.664062 15.328125 -10.5 C 15.128906 -10.332031 14.929688 -10.109375 14.734375 -9.828125 C 14.585938 -9.617188 14.421875 -9.367188 14.234375 -9.078125 C 14.054688 -8.785156 13.867188 -8.476562 13.671875 -8.15625 C 13.472656 -7.84375 13.296875 -7.539062 13.140625 -7.25 C 13.066406 -7.125 13.015625 -6.976562 12.984375 -6.8125 C 12.960938 -6.644531 12.972656 -6.484375 13.015625 -6.328125 L 14.25 -1.96875 C 14.28125 -1.851562 14.320312 -1.804688 14.375 -1.828125 C 14.425781 -1.859375 14.472656 -1.910156 14.515625 -1.984375 C 15.085938 -3.003906 15.679688 -4.132812 16.296875 -5.375 C 16.921875 -6.613281 17.519531 -7.8125 18.09375 -8.96875 C 18.21875 -9.21875 18.296875 -9.40625 18.328125 -9.53125 C 18.367188 -9.664062 18.394531 -9.78125 18.40625 -9.875 C 18.394531 -10.03125 18.351562 -10.175781 18.28125 -10.3125 C 18.207031 -10.445312 18.078125 -10.550781 17.890625 -10.625 C 17.753906 -10.675781 17.613281 -10.742188 17.46875 -10.828125 C 17.332031 -10.921875 17.269531 -11.019531 17.28125 -11.125 C 17.289062 -11.21875 17.359375 -11.273438 17.484375 -11.296875 C 17.617188 -11.328125 17.757812 -11.335938 17.90625 -11.328125 C 18.269531 -11.285156 18.546875 -11.242188 18.734375 -11.203125 C 18.921875 -11.160156 19.125 -11.128906 19.34375 -11.109375 C 19.59375 -11.078125 19.847656 -11.0625 20.109375 -11.0625 C 20.367188 -11.0625 20.664062 -11.039062 21 -11 C 21.195312 -10.976562 21.347656 -10.9375 21.453125 -10.875 C 21.566406 -10.820312 21.617188 -10.742188 21.609375 -10.640625 C 21.597656 -10.523438 21.523438 -10.445312 21.390625 -10.40625 C 21.265625 -10.375 21.109375 -10.347656 20.921875 -10.328125 C 20.628906 -10.285156 20.375 -10.191406 20.15625 -10.046875 C 19.9375 -9.910156 19.75 -9.742188 19.59375 -9.546875 C 19.4375 -9.359375 19.304688 -9.160156 19.203125 -8.953125 L 13.609375 1.4375 C 13.554688 1.53125 13.488281 1.617188 13.40625 1.703125 C 13.332031 1.785156 13.257812 1.820312 13.1875 1.8125 C 13.082031 1.800781 13 1.753906 12.9375 1.671875 C 12.882812 1.585938 12.835938 1.488281 12.796875 1.375 C 12.628906 0.84375 12.460938 0.3125 12.296875 -0.21875 C 12.128906 -0.75 11.945312 -1.34375 11.75 -2 C 11.5625 -2.664062 11.335938 -3.425781 11.078125 -4.28125 C 11.046875 -4.382812 11.003906 -4.429688 10.953125 -4.421875 C 10.898438 -4.410156 10.847656 -4.351562 10.796875 -4.25 C 10.429688 -3.675781 10.082031 -3.125 9.75 -2.59375 C 9.414062 -2.070312 9.082031 -1.539062 8.75 -1 C 8.425781 -0.46875 8.085938 0.09375 7.734375 0.6875 C 7.671875 0.820312 7.59375 0.941406 7.5 1.046875 C 7.40625 1.148438 7.3125 1.195312 7.21875 1.1875 Z M 7.21875 1.1875 "/></g></g></g><g fill="#000000" fill-opacity="1"><g transform="translate(193.081465, 278.998449)"><g><path d="M 0.5 0.046875 C 0.34375 0.0664062 0.207031 0.0546875 0.09375 0.015625 C -0.0195312 -0.015625 -0.0859375 -0.0820312 -0.109375 -0.1875 C -0.117188 -0.3125 -0.0820312 -0.414062 0 -0.5 C 0.09375 -0.582031 0.21875 -0.660156 0.375 -0.734375 C 0.75 -0.890625 1.066406 -1.097656 1.328125 -1.359375 C 1.585938 -1.617188 1.773438 -1.960938 1.890625 -2.390625 C 2.097656 -3.222656 2.304688 -4.03125 2.515625 -4.8125 C 2.734375 -5.59375 2.929688 -6.363281 3.109375 -7.125 C 3.285156 -7.882812 3.460938 -8.660156 3.640625 -9.453125 C 3.828125 -10.253906 4.007812 -11.09375 4.1875 -11.96875 C 4.269531 -12.414062 4.320312 -12.753906 4.34375 -12.984375 C 4.375 -13.222656 4.40625 -13.394531 4.4375 -13.5 C 4.625 -13.59375 4.800781 -13.675781 4.96875 -13.75 C 5.144531 -13.832031 5.328125 -13.929688 5.515625 -14.046875 C 5.691406 -14.160156 5.835938 -14.300781 5.953125 -14.46875 C 6.066406 -14.632812 6.15625 -14.757812 6.21875 -14.84375 C 6.257812 -14.875 6.300781 -14.894531 6.34375 -14.90625 C 6.382812 -14.914062 6.421875 -14.894531 6.453125 -14.84375 C 6.515625 -14.757812 6.566406 -14.679688 6.609375 -14.609375 C 6.648438 -14.535156 6.6875 -14.457031 6.71875 -14.375 C 7.144531 -13.46875 7.582031 -12.546875 8.03125 -11.609375 C 8.488281 -10.671875 8.9375 -9.75 9.375 -8.84375 C 9.820312 -7.945312 10.253906 -7.082031 10.671875 -6.25 C 11.085938 -5.414062 11.46875 -4.660156 11.8125 -3.984375 C 11.96875 -3.628906 12.15625 -3.351562 12.375 -3.15625 C 12.59375 -2.96875 12.816406 -2.832031 13.046875 -2.75 C 13.285156 -2.675781 13.546875 -2.625 13.828125 -2.59375 C 14.015625 -2.582031 14.160156 -2.546875 14.265625 -2.484375 C 14.367188 -2.429688 14.425781 -2.347656 14.4375 -2.234375 C 14.445312 -2.148438 14.410156 -2.078125 14.328125 -2.015625 C 14.253906 -1.960938 14.148438 -1.929688 14.015625 -1.921875 C 13.773438 -1.878906 13.46875 -1.835938 13.09375 -1.796875 C 12.71875 -1.765625 12.332031 -1.734375 11.9375 -1.703125 C 11.550781 -1.671875 11.203125 -1.632812 10.890625 -1.59375 C 10.617188 -1.550781 10.316406 -1.5 9.984375 -1.4375 C 9.660156 -1.375 9.332031 -1.3125 9 -1.25 C 8.675781 -1.1875 8.398438 -1.140625 8.171875 -1.109375 C 8.035156 -1.085938 7.914062 -1.09375 7.8125 -1.125 C 7.707031 -1.164062 7.648438 -1.234375 7.640625 -1.328125 C 7.617188 -1.429688 7.65625 -1.523438 7.75 -1.609375 C 7.84375 -1.703125 7.96875 -1.773438 8.125 -1.828125 C 8.59375 -1.972656 8.921875 -2.144531 9.109375 -2.34375 C 9.296875 -2.539062 9.34375 -2.800781 9.25 -3.125 C 9.175781 -3.34375 9.078125 -3.601562 8.953125 -3.90625 C 8.828125 -4.207031 8.695312 -4.523438 8.5625 -4.859375 C 8.425781 -5.191406 8.289062 -5.492188 8.15625 -5.765625 C 8.113281 -5.867188 8.0625 -5.941406 8 -5.984375 C 7.945312 -6.023438 7.84375 -6.035156 7.6875 -6.015625 L 4.046875 -5.5 C 3.953125 -5.488281 3.882812 -5.445312 3.84375 -5.375 C 3.800781 -5.300781 3.773438 -5.203125 3.765625 -5.078125 C 3.734375 -4.890625 3.695312 -4.679688 3.65625 -4.453125 C 3.613281 -4.222656 3.570312 -3.984375 3.53125 -3.734375 C 3.488281 -3.492188 3.453125 -3.265625 3.421875 -3.046875 C 3.398438 -2.835938 3.382812 -2.660156 3.375 -2.515625 C 3.363281 -2.140625 3.46875 -1.859375 3.6875 -1.671875 C 3.90625 -1.484375 4.265625 -1.375 4.765625 -1.34375 C 5.140625 -1.300781 5.34375 -1.179688 5.375 -0.984375 C 5.382812 -0.910156 5.347656 -0.84375 5.265625 -0.78125 C 5.191406 -0.71875 5.070312 -0.671875 4.90625 -0.640625 C 4.59375 -0.597656 4.269531 -0.5625 3.9375 -0.53125 C 3.601562 -0.507812 3.234375 -0.472656 2.828125 -0.421875 C 2.421875 -0.359375 2.023438 -0.28125 1.640625 -0.1875 C 1.265625 -0.09375 0.882812 -0.015625 0.5 0.046875 Z M 4.484375 -6.5 L 7.28125 -6.890625 C 7.46875 -6.921875 7.554688 -6.972656 7.546875 -7.046875 C 7.535156 -7.085938 7.523438 -7.125 7.515625 -7.15625 C 7.515625 -7.1875 7.503906 -7.222656 7.484375 -7.265625 L 5.40625 -11.734375 C 5.320312 -11.910156 5.257812 -11.992188 5.21875 -11.984375 C 5.195312 -11.984375 5.164062 -11.890625 5.125 -11.703125 L 4.078125 -6.796875 C 4.066406 -6.710938 4.0625 -6.648438 4.0625 -6.609375 C 4.070312 -6.546875 4.113281 -6.503906 4.1875 -6.484375 C 4.269531 -6.472656 4.367188 -6.476562 4.484375 -6.5 Z M 4.484375 -6.5 "/></g></g></g><g fill="#000000" fill-opacity="1"><g transform="translate(215.476735, 274.905304)"><g><path d="M 1.015625 -0.265625 C 0.867188 -0.210938 0.726562 -0.191406 0.59375 -0.203125 C 0.46875 -0.210938 0.390625 -0.253906 0.359375 -0.328125 C 0.285156 -0.515625 0.414062 -0.710938 0.75 -0.921875 C 1.195312 -1.210938 1.460938 -1.476562 1.546875 -1.71875 C 1.640625 -1.957031 1.601562 -2.289062 1.4375 -2.71875 L -1.875 -11.328125 C -2.039062 -11.742188 -2.242188 -12.003906 -2.484375 -12.109375 C -2.734375 -12.210938 -3.117188 -12.222656 -3.640625 -12.140625 C -3.992188 -12.066406 -4.210938 -12.132812 -4.296875 -12.34375 C -4.328125 -12.414062 -4.304688 -12.492188 -4.234375 -12.578125 C -4.160156 -12.660156 -4.066406 -12.722656 -3.953125 -12.765625 C -3.648438 -12.878906 -3.347656 -12.988281 -3.046875 -13.09375 C -2.753906 -13.207031 -2.472656 -13.304688 -2.203125 -13.390625 C -1.929688 -13.472656 -1.664062 -13.566406 -1.40625 -13.671875 C -1.144531 -13.765625 -0.882812 -13.867188 -0.625 -13.984375 C -0.375 -14.097656 -0.113281 -14.210938 0.15625 -14.328125 C 0.425781 -14.453125 0.710938 -14.570312 1.015625 -14.6875 C 1.140625 -14.738281 1.25 -14.753906 1.34375 -14.734375 C 1.4375 -14.722656 1.503906 -14.675781 1.546875 -14.59375 C 1.585938 -14.476562 1.578125 -14.375 1.515625 -14.28125 C 1.453125 -14.195312 1.34375 -14.109375 1.1875 -14.015625 C 0.75 -13.679688 0.5 -13.394531 0.4375 -13.15625 C 0.382812 -12.914062 0.429688 -12.609375 0.578125 -12.234375 L 2.03125 -8.46875 C 2.0625 -8.394531 2.101562 -8.332031 2.15625 -8.28125 C 2.207031 -8.226562 2.265625 -8.210938 2.328125 -8.234375 C 2.378906 -8.253906 2.4375 -8.3125 2.5 -8.40625 C 2.5625 -8.5 2.617188 -8.601562 2.671875 -8.71875 L 4.859375 -14.078125 C 4.921875 -14.222656 4.960938 -14.351562 4.984375 -14.46875 C 5.003906 -14.59375 5 -14.695312 4.96875 -14.78125 C 4.875 -15.039062 4.585938 -15.140625 4.109375 -15.078125 C 3.941406 -15.054688 3.804688 -15.0625 3.703125 -15.09375 C 3.597656 -15.132812 3.53125 -15.203125 3.5 -15.296875 C 3.46875 -15.367188 3.488281 -15.441406 3.5625 -15.515625 C 3.632812 -15.597656 3.726562 -15.664062 3.84375 -15.71875 L 5.0625 -16.1875 C 5.46875 -16.34375 5.875 -16.503906 6.28125 -16.671875 C 6.695312 -16.835938 7.097656 -17.003906 7.484375 -17.171875 C 7.878906 -17.335938 8.238281 -17.484375 8.5625 -17.609375 C 8.6875 -17.660156 8.804688 -17.679688 8.921875 -17.671875 C 9.035156 -17.671875 9.109375 -17.628906 9.140625 -17.546875 C 9.179688 -17.429688 9.15625 -17.316406 9.0625 -17.203125 C 8.96875 -17.097656 8.847656 -17.003906 8.703125 -16.921875 C 8.148438 -16.617188 7.671875 -16.269531 7.265625 -15.875 C 6.859375 -15.488281 6.515625 -15.054688 6.234375 -14.578125 C 5.960938 -14.109375 5.707031 -13.628906 5.46875 -13.140625 C 5.238281 -12.660156 5.015625 -12.160156 4.796875 -11.640625 C 4.578125 -11.128906 4.34375 -10.597656 4.09375 -10.046875 C 4 -9.867188 4.078125 -9.707031 4.328125 -9.5625 L 10.859375 -6.3125 C 11.140625 -6.164062 11.394531 -6.039062 11.625 -5.9375 C 11.863281 -5.84375 12.113281 -5.785156 12.375 -5.765625 C 12.644531 -5.753906 12.960938 -5.765625 13.328125 -5.796875 C 13.492188 -5.816406 13.648438 -5.820312 13.796875 -5.8125 C 13.953125 -5.800781 14.046875 -5.75 14.078125 -5.65625 C 14.117188 -5.570312 14.085938 -5.476562 13.984375 -5.375 C 13.890625 -5.28125 13.738281 -5.191406 13.53125 -5.109375 C 13.132812 -4.953125 12.757812 -4.820312 12.40625 -4.71875 C 12.0625 -4.625 11.722656 -4.519531 11.390625 -4.40625 C 11.066406 -4.289062 10.710938 -4.160156 10.328125 -4.015625 C 9.972656 -3.867188 9.644531 -3.726562 9.34375 -3.59375 C 9.050781 -3.457031 8.6875 -3.304688 8.25 -3.140625 C 8.132812 -3.097656 8.019531 -3.082031 7.90625 -3.09375 C 7.800781 -3.113281 7.738281 -3.15625 7.71875 -3.21875 C 7.644531 -3.40625 7.742188 -3.585938 8.015625 -3.765625 C 8.410156 -4.035156 8.578125 -4.285156 8.515625 -4.515625 C 8.472656 -4.597656 8.40625 -4.671875 8.3125 -4.734375 C 8.226562 -4.796875 8.117188 -4.867188 7.984375 -4.953125 L 3.078125 -7.53125 C 2.953125 -7.582031 2.84375 -7.625 2.75 -7.65625 C 2.65625 -7.6875 2.578125 -7.691406 2.515625 -7.671875 C 2.460938 -7.648438 2.4375 -7.597656 2.4375 -7.515625 C 2.445312 -7.429688 2.46875 -7.347656 2.5 -7.265625 C 2.726562 -6.679688 2.953125 -6.113281 3.171875 -5.5625 C 3.398438 -5.007812 3.65625 -4.410156 3.9375 -3.765625 C 4.03125 -3.546875 4.140625 -3.351562 4.265625 -3.1875 C 4.398438 -3.019531 4.566406 -2.90625 4.765625 -2.84375 C 4.960938 -2.78125 5.242188 -2.765625 5.609375 -2.796875 C 5.796875 -2.828125 5.945312 -2.832031 6.0625 -2.8125 C 6.1875 -2.800781 6.265625 -2.75 6.296875 -2.65625 C 6.335938 -2.570312 6.3125 -2.484375 6.21875 -2.390625 C 6.125 -2.304688 6.003906 -2.234375 5.859375 -2.171875 C 5.484375 -2.023438 5.160156 -1.914062 4.890625 -1.84375 C 4.628906 -1.769531 4.390625 -1.703125 4.171875 -1.640625 C 3.960938 -1.585938 3.734375 -1.515625 3.484375 -1.421875 C 3.222656 -1.316406 2.972656 -1.203125 2.734375 -1.078125 C 2.492188 -0.960938 2.242188 -0.835938 1.984375 -0.703125 C 1.734375 -0.566406 1.410156 -0.421875 1.015625 -0.265625 Z M 1.015625 -0.265625 "/></g></g></g><g fill="#000000" fill-opacity="1"><g transform="translate(236.608879, 265.559578)"><g><path d="M 3.828125 -2.09375 C 3.335938 -1.78125 2.832031 -1.546875 2.3125 -1.390625 C 1.789062 -1.242188 1.265625 -1.175781 0.734375 -1.1875 C 0.628906 -1.195312 0.523438 -1.21875 0.421875 -1.25 C 0.328125 -1.28125 0.238281 -1.316406 0.15625 -1.359375 C -0.101562 -1.585938 -0.382812 -1.898438 -0.6875 -2.296875 C -1 -2.703125 -1.273438 -3.097656 -1.515625 -3.484375 C -1.566406 -3.554688 -1.570312 -3.628906 -1.53125 -3.703125 C -1.488281 -3.785156 -1.421875 -3.859375 -1.328125 -3.921875 C -1.242188 -3.972656 -1.164062 -4 -1.09375 -4 C -1.03125 -4.007812 -0.957031 -3.976562 -0.875 -3.90625 C -0.0820312 -3.207031 0.707031 -2.773438 1.5 -2.609375 C 2.300781 -2.453125 3.003906 -2.570312 3.609375 -2.96875 C 3.984375 -3.207031 4.242188 -3.492188 4.390625 -3.828125 C 4.535156 -4.160156 4.585938 -4.507812 4.546875 -4.875 C 4.503906 -5.238281 4.382812 -5.578125 4.1875 -5.890625 C 3.925781 -6.296875 3.640625 -6.585938 3.328125 -6.765625 C 3.015625 -6.941406 2.648438 -7.039062 2.234375 -7.0625 C 1.816406 -7.09375 1.3125 -7.085938 0.71875 -7.046875 C 0.0703125 -7.015625 -0.566406 -7.003906 -1.203125 -7.015625 C -1.835938 -7.023438 -2.429688 -7.144531 -2.984375 -7.375 C -3.546875 -7.613281 -4.023438 -8.039062 -4.421875 -8.65625 C -4.828125 -9.289062 -5.023438 -9.957031 -5.015625 -10.65625 C -5.015625 -11.351562 -4.8125 -12.023438 -4.40625 -12.671875 C -4 -13.316406 -3.414062 -13.890625 -2.65625 -14.390625 C -2.226562 -14.660156 -1.800781 -14.867188 -1.375 -15.015625 C -0.945312 -15.160156 -0.597656 -15.257812 -0.328125 -15.3125 C -0.171875 -15.332031 -0.046875 -15.332031 0.046875 -15.3125 C 0.148438 -15.289062 0.273438 -15.210938 0.421875 -15.078125 C 0.640625 -14.890625 0.878906 -14.644531 1.140625 -14.34375 C 1.398438 -14.050781 1.648438 -13.722656 1.890625 -13.359375 C 1.984375 -13.210938 1.925781 -13.070312 1.71875 -12.9375 C 1.632812 -12.882812 1.53125 -12.847656 1.40625 -12.828125 C 1.28125 -12.816406 1.1875 -12.847656 1.125 -12.921875 C 0.476562 -13.453125 -0.128906 -13.769531 -0.703125 -13.875 C -1.273438 -13.988281 -1.828125 -13.875 -2.359375 -13.53125 C -2.703125 -13.300781 -2.960938 -13.046875 -3.140625 -12.765625 C -3.316406 -12.484375 -3.398438 -12.171875 -3.390625 -11.828125 C -3.390625 -11.484375 -3.265625 -11.117188 -3.015625 -10.734375 C -2.828125 -10.429688 -2.550781 -10.21875 -2.1875 -10.09375 C -1.820312 -9.976562 -1.378906 -9.914062 -0.859375 -9.90625 C -0.347656 -9.90625 0.222656 -9.910156 0.859375 -9.921875 C 1.609375 -9.941406 2.269531 -9.910156 2.84375 -9.828125 C 3.425781 -9.742188 3.941406 -9.570312 4.390625 -9.3125 C 4.847656 -9.050781 5.25 -8.644531 5.59375 -8.09375 C 6.082031 -7.34375 6.320312 -6.609375 6.3125 -5.890625 C 6.3125 -5.171875 6.097656 -4.488281 5.671875 -3.84375 C 5.242188 -3.195312 4.628906 -2.613281 3.828125 -2.09375 Z M 3.828125 -2.09375 "/></g></g></g><g fill="#000000" fill-opacity="1"><g transform="translate(251.004933, 255.334328)"><g/></g></g></svg>